<svg xmlns="http://www.w3.org/2000/svg" width="18" height="15.861" viewBox="0 0 18 15.861">
    <path fill="#69676d" d="M18.182 2a.818.818 0 0 1 .818.818V11a.818.818 0 0 1-.818.818h-1.637a.818.818 0 0 1-.818-.818V2.818A.818.818 0 0 1 16.545 2zm-5.727 0a1.636 1.636 0 0 1 1.636 1.636v8.175a1.635 1.635 0 0 1-.478 1.155L9.089 17.5a1.228 1.228 0 0 1-2.069-1.13l.813-3.735h-5.2A1.636 1.636 0 0 1 1 11V9.365a1.637 1.637 0 0 1 .133-.646l2.461-5.728A1.636 1.636 0 0 1 5.1 2z" transform="translate(-1 -2)"/>
</svg>
