<svg xmlns="http://www.w3.org/2000/svg" width="18" height="15.862" viewBox="0 0 18 15.862">
    <path fill="#69676d" d="M11.775 1.613a1.227 1.227 0 0 0-.864.361L6.387 6.508a1.635 1.635 0 0 0-.478 1.155v8.175a1.636 1.636 0 0 0 1.636 1.636H14.9a1.637 1.637 0 0 0 1.5-.991l2.461-5.729A1.637 1.637 0 0 0 19 10.11V8.475a1.636 1.636 0 0 0-1.636-1.636h-5.2L12.98 3.1a1.229 1.229 0 0 0-1.2-1.491zM1.818 7.657A.818.818 0 0 0 1 8.475v8.182a.818.818 0 0 0 .818.818h1.637a.818.818 0 0 0 .818-.818V8.475a.818.818 0 0 0-.818-.818z" transform="translate(-1 -1.613)"/>
</svg>
